<?xml version="1.0" standalone="no"?><!DOCTYPE svg PUBLIC "-//W3C//DTD SVG 1.1//EN" "http://www.w3.org/Graphics/SVG/1.1/DTD/svg11.dtd"><svg t="1596447213847" class="icon" viewBox="0 0 1024 1024" version="1.1" xmlns="http://www.w3.org/2000/svg" p-id="3403" xmlns:xlink="http://www.w3.org/1999/xlink" width="200" height="200"><defs><style type="text/css"></style></defs><path d="M512 576.170667m-191.146667 0a191.146667 191.146667 0 1 0 382.293334 0 191.146667 191.146667 0 1 0-382.293334 0Z" fill="#FFE55C" p-id="3404"></path><path d="M512 537.258667c-103.765333 0-188.416-84.650667-188.416-188.416S408.234667 160.426667 512 160.426667s188.416 84.650667 188.416 188.416S615.765333 537.258667 512 537.258667z m0-335.872c-81.237333 0-147.456 66.218667-147.456 147.456S430.762667 496.298667 512 496.298667 659.456 430.08 659.456 348.842667 593.237333 201.386667 512 201.386667zM832.853333 863.573333c-8.874667 0-17.066667-5.461333-19.797333-14.336C771.413333 717.482667 650.581333 628.736 512 628.736s-259.413333 88.746667-301.738667 220.501333c-3.413333 10.922667-15.018667 16.384-25.941333 13.653334-10.922667-3.413333-17.066667-15.018667-13.653333-25.941334 47.104-148.821333 184.32-249.173333 340.650666-249.173333s293.546667 100.352 340.650667 249.173333c3.413333 10.922667-2.730667 22.528-13.653333 25.941334-1.365333 0.682667-3.413333 0.682667-5.461334 0.682666z" fill="#4D4D4D" p-id="3405"></path></svg>